<mxfile host="app.diagrams.net" modified="2024-02-16T15:52:06.558Z" agent="Mozilla/5.0 (Windows NT 10.0; Win64; x64) AppleWebKit/537.36 (KHTML, like Gecko) Chrome/120.0.0.0 YaBrowser/24.1.0.0 Safari/537.36" etag="0TkAkmPILhJWhtqC0UV0" version="23.1.4" type="github">
  <diagram id="R2lEEEUBdFMjLlhIrx00" name="Page-1">
    <mxGraphModel dx="1129" dy="523" grid="1" gridSize="10" guides="1" tooltips="1" connect="1" arrows="1" fold="1" page="1" pageScale="1" pageWidth="850" pageHeight="1100" math="0" shadow="0" extFonts="Permanent Marker^https://fonts.googleapis.com/css?family=Permanent+Marker">
      <root>
        <mxCell id="0" />
        <mxCell id="1" parent="0" />
        <mxCell id="pCvpWIGNKYC3VU6ShfLp-1" value="Продукты" style="swimlane;fontStyle=0;childLayout=stackLayout;horizontal=1;startSize=30;horizontalStack=0;resizeParent=1;resizeParentMax=0;resizeLast=0;collapsible=1;marginBottom=0;whiteSpace=wrap;html=1;" vertex="1" parent="1">
          <mxGeometry x="250" y="460" width="140" height="120" as="geometry" />
        </mxCell>
        <mxCell id="pCvpWIGNKYC3VU6ShfLp-3" value="Название&lt;br&gt;Срок хранения&lt;br&gt;Вес&lt;br&gt;Кол-во&lt;br&gt;" style="text;strokeColor=none;fillColor=none;align=left;verticalAlign=middle;spacingLeft=4;spacingRight=4;overflow=hidden;points=[[0,0.5],[1,0.5]];portConstraint=eastwest;rotatable=0;whiteSpace=wrap;html=1;" vertex="1" parent="pCvpWIGNKYC3VU6ShfLp-1">
          <mxGeometry y="30" width="140" height="90" as="geometry" />
        </mxCell>
        <mxCell id="pCvpWIGNKYC3VU6ShfLp-5" value="Кафе" style="swimlane;fontStyle=0;childLayout=stackLayout;horizontal=1;startSize=30;horizontalStack=0;resizeParent=1;resizeParentMax=0;resizeLast=0;collapsible=1;marginBottom=0;whiteSpace=wrap;html=1;" vertex="1" parent="1">
          <mxGeometry x="580" y="60" width="140" height="120" as="geometry" />
        </mxCell>
        <mxCell id="pCvpWIGNKYC3VU6ShfLp-6" value="Название&lt;br&gt;Адрес&lt;br&gt;Рейтинг&lt;br&gt;Кол-во сотрудников" style="text;strokeColor=none;fillColor=none;align=left;verticalAlign=middle;spacingLeft=4;spacingRight=4;overflow=hidden;points=[[0,0.5],[1,0.5]];portConstraint=eastwest;rotatable=0;whiteSpace=wrap;html=1;" vertex="1" parent="pCvpWIGNKYC3VU6ShfLp-5">
          <mxGeometry y="30" width="140" height="90" as="geometry" />
        </mxCell>
        <mxCell id="pCvpWIGNKYC3VU6ShfLp-7" value="Повар" style="swimlane;fontStyle=0;childLayout=stackLayout;horizontal=1;startSize=30;horizontalStack=0;resizeParent=1;resizeParentMax=0;resizeLast=0;collapsible=1;marginBottom=0;whiteSpace=wrap;html=1;" vertex="1" parent="1">
          <mxGeometry x="250" y="80" width="140" height="120" as="geometry" />
        </mxCell>
        <mxCell id="pCvpWIGNKYC3VU6ShfLp-8" value="ФИО&lt;br&gt;Возраст&lt;br&gt;Стаж&lt;br&gt;Специализация" style="text;strokeColor=none;fillColor=none;align=left;verticalAlign=middle;spacingLeft=4;spacingRight=4;overflow=hidden;points=[[0,0.5],[1,0.5]];portConstraint=eastwest;rotatable=0;whiteSpace=wrap;html=1;" vertex="1" parent="pCvpWIGNKYC3VU6ShfLp-7">
          <mxGeometry y="30" width="140" height="90" as="geometry" />
        </mxCell>
        <mxCell id="pCvpWIGNKYC3VU6ShfLp-9" value="Блюдо" style="swimlane;fontStyle=0;childLayout=stackLayout;horizontal=1;startSize=30;horizontalStack=0;resizeParent=1;resizeParentMax=0;resizeLast=0;collapsible=1;marginBottom=0;whiteSpace=wrap;html=1;" vertex="1" parent="1">
          <mxGeometry x="560" y="250" width="140" height="120" as="geometry" />
        </mxCell>
        <mxCell id="pCvpWIGNKYC3VU6ShfLp-10" value="Название&lt;br&gt;Время готовки&lt;br&gt;Состав&lt;br&gt;Калорийность&lt;br&gt;" style="text;strokeColor=none;fillColor=none;align=left;verticalAlign=middle;spacingLeft=4;spacingRight=4;overflow=hidden;points=[[0,0.5],[1,0.5]];portConstraint=eastwest;rotatable=0;whiteSpace=wrap;html=1;" vertex="1" parent="pCvpWIGNKYC3VU6ShfLp-9">
          <mxGeometry y="30" width="140" height="90" as="geometry" />
        </mxCell>
        <mxCell id="pCvpWIGNKYC3VU6ShfLp-11" value="Рецепт" style="swimlane;fontStyle=0;childLayout=stackLayout;horizontal=1;startSize=30;horizontalStack=0;resizeParent=1;resizeParentMax=0;resizeLast=0;collapsible=1;marginBottom=0;whiteSpace=wrap;html=1;" vertex="1" parent="1">
          <mxGeometry x="250" y="260" width="140" height="120" as="geometry" />
        </mxCell>
        <mxCell id="pCvpWIGNKYC3VU6ShfLp-12" value="Язык&lt;br&gt;Содержание&lt;br&gt;Продукты&lt;br&gt;Страна" style="text;strokeColor=none;fillColor=none;align=left;verticalAlign=middle;spacingLeft=4;spacingRight=4;overflow=hidden;points=[[0,0.5],[1,0.5]];portConstraint=eastwest;rotatable=0;whiteSpace=wrap;html=1;" vertex="1" parent="pCvpWIGNKYC3VU6ShfLp-11">
          <mxGeometry y="30" width="140" height="90" as="geometry" />
        </mxCell>
        <mxCell id="pCvpWIGNKYC3VU6ShfLp-13" value="" style="endArrow=none;html=1;rounded=0;exitX=0.526;exitY=1.022;exitDx=0;exitDy=0;exitPerimeter=0;entryX=0.611;entryY=-0.01;entryDx=0;entryDy=0;entryPerimeter=0;" edge="1" parent="1" source="pCvpWIGNKYC3VU6ShfLp-12" target="pCvpWIGNKYC3VU6ShfLp-1">
          <mxGeometry width="50" height="50" relative="1" as="geometry">
            <mxPoint x="460" y="320" as="sourcePoint" />
            <mxPoint x="510" y="270" as="targetPoint" />
            <Array as="points" />
          </mxGeometry>
        </mxCell>
        <mxCell id="pCvpWIGNKYC3VU6ShfLp-26" value="M" style="edgeLabel;html=1;align=center;verticalAlign=middle;resizable=0;points=[];" vertex="1" connectable="0" parent="pCvpWIGNKYC3VU6ShfLp-13">
          <mxGeometry x="-0.7196" y="-2" relative="1" as="geometry">
            <mxPoint as="offset" />
          </mxGeometry>
        </mxCell>
        <mxCell id="pCvpWIGNKYC3VU6ShfLp-27" value="N" style="edgeLabel;html=1;align=center;verticalAlign=middle;resizable=0;points=[];" vertex="1" connectable="0" parent="pCvpWIGNKYC3VU6ShfLp-13">
          <mxGeometry x="0.4767" y="1" relative="1" as="geometry">
            <mxPoint as="offset" />
          </mxGeometry>
        </mxCell>
        <mxCell id="pCvpWIGNKYC3VU6ShfLp-14" value="" style="endArrow=none;html=1;rounded=0;exitX=1.006;exitY=0.347;exitDx=0;exitDy=0;exitPerimeter=0;entryX=0;entryY=0.5;entryDx=0;entryDy=0;" edge="1" parent="1" source="pCvpWIGNKYC3VU6ShfLp-12" target="pCvpWIGNKYC3VU6ShfLp-10">
          <mxGeometry width="50" height="50" relative="1" as="geometry">
            <mxPoint x="460" y="271.5" as="sourcePoint" />
            <mxPoint x="472" y="348.5" as="targetPoint" />
            <Array as="points" />
          </mxGeometry>
        </mxCell>
        <mxCell id="pCvpWIGNKYC3VU6ShfLp-24" value="N" style="edgeLabel;html=1;align=center;verticalAlign=middle;resizable=0;points=[];" vertex="1" connectable="0" parent="pCvpWIGNKYC3VU6ShfLp-14">
          <mxGeometry x="-0.783" y="-1" relative="1" as="geometry">
            <mxPoint as="offset" />
          </mxGeometry>
        </mxCell>
        <mxCell id="pCvpWIGNKYC3VU6ShfLp-25" value="1" style="edgeLabel;html=1;align=center;verticalAlign=middle;resizable=0;points=[];" vertex="1" connectable="0" parent="pCvpWIGNKYC3VU6ShfLp-14">
          <mxGeometry x="0.7069" y="2" relative="1" as="geometry">
            <mxPoint as="offset" />
          </mxGeometry>
        </mxCell>
        <mxCell id="pCvpWIGNKYC3VU6ShfLp-15" value="" style="endArrow=none;html=1;rounded=0;entryX=0.5;entryY=0;entryDx=0;entryDy=0;" edge="1" parent="1" target="pCvpWIGNKYC3VU6ShfLp-11">
          <mxGeometry width="50" height="50" relative="1" as="geometry">
            <mxPoint x="320" y="200" as="sourcePoint" />
            <mxPoint x="425" y="287" as="targetPoint" />
            <Array as="points" />
          </mxGeometry>
        </mxCell>
        <mxCell id="pCvpWIGNKYC3VU6ShfLp-22" value="N" style="edgeLabel;html=1;align=center;verticalAlign=middle;resizable=0;points=[];" vertex="1" connectable="0" parent="pCvpWIGNKYC3VU6ShfLp-15">
          <mxGeometry x="-0.6606" y="-2" relative="1" as="geometry">
            <mxPoint as="offset" />
          </mxGeometry>
        </mxCell>
        <mxCell id="pCvpWIGNKYC3VU6ShfLp-23" value="1" style="edgeLabel;html=1;align=center;verticalAlign=middle;resizable=0;points=[];" vertex="1" connectable="0" parent="pCvpWIGNKYC3VU6ShfLp-15">
          <mxGeometry x="0.3495" y="-1" relative="1" as="geometry">
            <mxPoint as="offset" />
          </mxGeometry>
        </mxCell>
        <mxCell id="pCvpWIGNKYC3VU6ShfLp-17" value="" style="endArrow=none;html=1;rounded=0;exitX=0;exitY=0.5;exitDx=0;exitDy=0;entryX=0.994;entryY=0.373;entryDx=0;entryDy=0;entryPerimeter=0;" edge="1" parent="1" source="pCvpWIGNKYC3VU6ShfLp-6" target="pCvpWIGNKYC3VU6ShfLp-8">
          <mxGeometry width="50" height="50" relative="1" as="geometry">
            <mxPoint x="480" y="81.5" as="sourcePoint" />
            <mxPoint x="492" y="159" as="targetPoint" />
            <Array as="points" />
          </mxGeometry>
        </mxCell>
        <mxCell id="pCvpWIGNKYC3VU6ShfLp-20" value="1" style="edgeLabel;html=1;align=center;verticalAlign=middle;resizable=0;points=[];" vertex="1" connectable="0" parent="pCvpWIGNKYC3VU6ShfLp-17">
          <mxGeometry x="-0.6393" y="-1" relative="1" as="geometry">
            <mxPoint as="offset" />
          </mxGeometry>
        </mxCell>
        <mxCell id="pCvpWIGNKYC3VU6ShfLp-21" value="M" style="edgeLabel;html=1;align=center;verticalAlign=middle;resizable=0;points=[];" vertex="1" connectable="0" parent="pCvpWIGNKYC3VU6ShfLp-17">
          <mxGeometry x="0.7131" y="-2" relative="1" as="geometry">
            <mxPoint as="offset" />
          </mxGeometry>
        </mxCell>
      </root>
    </mxGraphModel>
  </diagram>
</mxfile>
